#define g15_neko_width 160
#define g15_neko_height 43
static unsigned char g15_neko_bits[] = {
   0x00, 0x02, 0x00, 0x00, 0x00, 0x00, 0x00, 0x00, 0x00, 0x00, 0x00, 0x00,
   0x00, 0x00, 0x00, 0x00, 0x60, 0x00, 0x03, 0x00, 0x00, 0x48, 0x00, 0x08,
   0x00, 0x00, 0x00, 0x00, 0x00, 0x00, 0x00, 0x00, 0x00, 0x00, 0x00, 0xe0,
   0x1f, 0x00, 0x7c, 0x00, 0xd5, 0xda, 0x64, 0x98, 0x02, 0x00, 0x00, 0x00,
   0x00, 0x00, 0x00, 0x00, 0x00, 0x00, 0x00, 0xe0, 0x0f, 0x00, 0xf8, 0x07,
   0x55, 0x4a, 0xae, 0xa8, 0x02, 0x00, 0x00, 0x00, 0x00, 0x00, 0x00, 0x00,
   0x00, 0x00, 0x00, 0x40, 0x0f, 0x00, 0xf0, 0x1f, 0x55, 0x4a, 0xa2, 0xa8,
   0x02, 0x00, 0x00, 0x00, 0x00, 0x00, 0x00, 0x00, 0x00, 0x00, 0x00, 0x40,
   0x07, 0x20, 0xe0, 0x23, 0x4a, 0x92, 0xa4, 0x18, 0x01, 0x00, 0x00, 0x00,
   0x00, 0x00, 0x00, 0x00, 0x00, 0x78, 0x00, 0x80, 0x06, 0x42, 0xc0, 0x11,
   0x00, 0x00, 0x00, 0x00, 0x01, 0x00, 0x00, 0x00, 0x00, 0x00, 0x00, 0x00,
   0x00, 0xe6, 0x1e, 0x80, 0x06, 0x49, 0xc0, 0x18, 0x00, 0x00, 0x00, 0x80,
   0x00, 0x00, 0x00, 0x00, 0x00, 0x3c, 0x00, 0x00, 0x80, 0xf9, 0x3b, 0x80,
   0x82, 0x89, 0xc0, 0x04, 0x00, 0x00, 0x00, 0x00, 0x00, 0x00, 0x00, 0x00,
   0xf8, 0x3f, 0x00, 0x00, 0xe0, 0xf0, 0x7d, 0x00, 0x83, 0x92, 0x40, 0x05,
   0x00, 0x00, 0x00, 0x00, 0x00, 0x00, 0x00, 0x00, 0x38, 0x18, 0x00, 0x00,
   0x18, 0xe1, 0x62, 0x00, 0x42, 0xb4, 0x61, 0x02, 0x00, 0x00, 0x00, 0x00,
   0x00, 0x00, 0x00, 0x00, 0x00, 0x0c, 0x00, 0x00, 0x26, 0xc2, 0xc1, 0x00,
   0xa2, 0x57, 0xe1, 0x01, 0x00, 0x00, 0x00, 0x00, 0x00, 0x00, 0x00, 0x7c,
   0x00, 0x04, 0x00, 0x00, 0x43, 0x47, 0x80, 0x00, 0xe2, 0xd9, 0xa1, 0x00,
   0x00, 0x00, 0x00, 0x00, 0x00, 0x00, 0x00, 0xce, 0x00, 0x06, 0x00, 0xc0,
   0x84, 0x47, 0x8e, 0x70, 0xa2, 0xd1, 0x92, 0x00, 0x00, 0x00, 0x00, 0x00,
   0x00, 0x00, 0x00, 0x83, 0x01, 0x02, 0x00, 0x60, 0x88, 0x2f, 0xfd, 0x88,
   0x22, 0xc1, 0x92, 0x00, 0x00, 0x00, 0x00, 0x00, 0x00, 0x00, 0x00, 0x03,
   0x03, 0x03, 0x00, 0x98, 0x18, 0xaf, 0xfc, 0xa4, 0x44, 0x00, 0x92, 0x00,
   0x00, 0x00, 0x00, 0x00, 0x00, 0x00, 0x1e, 0x03, 0x03, 0x03, 0x00, 0x0c,
   0x1d, 0x7f, 0xfc, 0x53, 0x45, 0x0c, 0x89, 0x00, 0x00, 0x00, 0x00, 0x00,
   0x00, 0x80, 0x33, 0x03, 0x83, 0x01, 0x00, 0x12, 0x3e, 0x7e, 0xfe, 0x49,
   0xc9, 0x94, 0x8c, 0x00, 0x00, 0x00, 0x00, 0x00, 0x00, 0x80, 0x61, 0x03,
   0x86, 0x01, 0x00, 0x21, 0x3e, 0x7a, 0xc1, 0x6d, 0xdf, 0x89, 0x92, 0x00,
   0x00, 0x00, 0x00, 0x00, 0x00, 0xc0, 0x60, 0x02, 0x86, 0x01, 0x80, 0x22,
   0xbc, 0xe1, 0x80, 0xe1, 0xdb, 0x83, 0x91, 0x00, 0x00, 0x00, 0x00, 0x00,
   0x00, 0xcc, 0x60, 0x06, 0x86, 0x01, 0x40, 0x7c, 0xfc, 0x60, 0x00, 0xf9,
   0x70, 0xf6, 0x48, 0x00, 0x00, 0x00, 0x00, 0x00, 0x40, 0x0c, 0x30, 0x04,
   0x86, 0x01, 0x60, 0x7c, 0xe6, 0x63, 0x1c, 0x79, 0x00, 0x40, 0x49, 0x00,
   0x00, 0x00, 0x00, 0x00, 0xc0, 0x00, 0x30, 0x0c, 0x03, 0x00, 0x50, 0xf8,
   0xf1, 0x3f, 0x7f, 0x79, 0x30, 0xa0, 0x4a, 0x00, 0x00, 0x00, 0x00, 0x00,
   0x80, 0x00, 0x18, 0xb8, 0x03, 0x00, 0x88, 0x78, 0xd0, 0x9f, 0xfc, 0x79,
   0x08, 0x38, 0x25, 0x00, 0x00, 0x00, 0x00, 0x00, 0x86, 0x19, 0x0c, 0xf0,
   0x01, 0x00, 0xcc, 0x18, 0x08, 0xbf, 0xfc, 0x7b, 0x04, 0x5e, 0x19, 0x00,
   0x00, 0x00, 0x00, 0x00, 0x06, 0x31, 0x0c, 0x00, 0x00, 0x00, 0xf3, 0x07,
   0x18, 0x7c, 0xfc, 0x7b, 0xc2, 0x07, 0x0a, 0x00, 0x00, 0x00, 0x00, 0x02,
   0x00, 0x33, 0x84, 0x03, 0x00, 0x80, 0xe0, 0x00, 0x34, 0x70, 0xc2, 0xf3,
   0xf2, 0x1f, 0x12, 0x00, 0x00, 0x00, 0x00, 0x06, 0x00, 0x63, 0xe4, 0x01,
   0x00, 0xe0, 0x60, 0x00, 0xf4, 0x70, 0x81, 0xe3, 0xff, 0x1f, 0x12, 0x00,
   0xc0, 0x00, 0x00, 0x06, 0x18, 0x66, 0x7c, 0x00, 0xf8, 0x9d, 0x20, 0x00,
   0xfe, 0xff, 0x80, 0x14, 0xff, 0x1f, 0x12, 0x00, 0xc0, 0x01, 0x00, 0x06,
   0x30, 0xc6, 0x1c, 0x00, 0xc8, 0x8b, 0x10, 0x00, 0x7a, 0x02, 0x8d, 0x0c,
   0xfc, 0x2f, 0x12, 0x00, 0xc0, 0x00, 0x00, 0xec, 0x31, 0xcc, 0x00, 0x00,
   0x78, 0x88, 0x10, 0x00, 0xe1, 0xc3, 0xbf, 0x04, 0xfc, 0x2f, 0x0a, 0x00,
   0xc0, 0x00, 0x00, 0xfc, 0x23, 0x8c, 0x00, 0x00, 0x38, 0xc8, 0x08, 0x00,
   0xe1, 0xff, 0xff, 0x07, 0xf8, 0x1f, 0x0a, 0x00, 0xc0, 0x00, 0x70, 0x1c,
   0x62, 0x18, 0x00, 0x00, 0x70, 0xf8, 0xe9, 0xff, 0xe1, 0xff, 0xff, 0x07,
   0xf0, 0x0f, 0x07, 0x00, 0xc0, 0x30, 0x7c, 0x08, 0x66, 0x08, 0x00, 0x00,
   0xe0, 0xff, 0xf5, 0xff, 0xc3, 0xfd, 0xf3, 0x07, 0xc0, 0x03, 0x03, 0x00,
   0xc0, 0x18, 0x4c, 0x18, 0xc6, 0x00, 0x00, 0x00, 0x00, 0xf8, 0xff, 0xff,
   0x07, 0x01, 0xe0, 0x07, 0x80, 0x80, 0x01, 0x00, 0xc0, 0x0c, 0xc6, 0x18,
   0xc6, 0x00, 0x00, 0x00, 0x00, 0xc0, 0xff, 0xff, 0x0f, 0x01, 0xe0, 0x04,
   0x40, 0xc0, 0x00, 0x00, 0xc0, 0x06, 0xc6, 0x18, 0x03, 0x00, 0x00, 0x00,
   0x00, 0x00, 0xfe, 0xff, 0x0f, 0xfe, 0x7f, 0x04, 0x20, 0xc0, 0x00, 0x00,
   0xc0, 0x0f, 0xc6, 0xf0, 0x03, 0x00, 0x00, 0x00, 0x00, 0x00, 0x7f, 0xc0,
   0x0f, 0xb8, 0x7f, 0x04, 0x10, 0x60, 0x00, 0x00, 0xc0, 0x19, 0xc6, 0xf1,
   0x00, 0x00, 0x00, 0x00, 0x00, 0x00, 0x3f, 0x40, 0x07, 0x24, 0x7e, 0x08,
   0x08, 0x30, 0x00, 0x00, 0xc0, 0x10, 0xfe, 0x01, 0x00, 0x00, 0x00, 0x00,
   0x00, 0x00, 0x1f, 0x40, 0x00, 0x46, 0x7e, 0x08, 0x08, 0x10, 0x00, 0x00,
   0xc0, 0x30, 0x3c, 0x00, 0x00, 0x00, 0x00, 0x00, 0x00, 0x00, 0x0f, 0x20,
   0x00, 0x87, 0x5f, 0x08, 0x04, 0x08, 0x00, 0x00, 0xc0, 0x60, 0x00, 0x00,
   0x00, 0x00, 0x00, 0x00, 0x00, 0x80, 0x0f, 0x20, 0x00, 0x87, 0xc0, 0x08,
   0x04, 0x04, 0x00, 0x00, 0x00, 0x00, 0x00, 0x00, 0x00, 0x00, 0x00, 0x00,
   0x00, 0x80, 0x0f, 0x20, 0x80, 0x87, 0x80, 0x08, 0x06, 0x02, 0x00, 0x00,
   0x00, 0x00, 0x00, 0x00, 0x00, 0x00, 0x00, 0x00, 0x00, 0x80, 0x0f, 0x20,
   0x80, 0x87, 0x80, 0x08, 0x05, 0x01, 0x00, 0x00 };
