#define keyboard_width 160
#define keyboard_height 43
static unsigned char keyboard_bits[] = {
   0x00, 0x00, 0x00, 0x00, 0x00, 0x00, 0x00, 0x00, 0x00, 0x00, 0x00, 0x00,
   0x00, 0x00, 0x00, 0x00, 0x00, 0x00, 0x00, 0x00, 0x00, 0x00, 0x00, 0x00,
   0x00, 0x00, 0x00, 0x00, 0x00, 0x00, 0x00, 0x00, 0x00, 0x00, 0x00, 0x00,
   0x00, 0x00, 0x00, 0x00, 0x00, 0x00, 0x00, 0x00, 0x00, 0x00, 0x00, 0x00,
   0x00, 0x00, 0x00, 0x00, 0x00, 0x00, 0x00, 0x00, 0x00, 0x00, 0x00, 0x00,
   0x00, 0x00, 0x00, 0x00, 0x00, 0x00, 0x00, 0x00, 0x00, 0x00, 0x00, 0x00,
   0x00, 0x00, 0x00, 0x00, 0x00, 0x00, 0x00, 0x00, 0x00, 0x00, 0x00, 0x00,
   0x00, 0x00, 0x00, 0x00, 0x00, 0x00, 0x00, 0x00, 0x00, 0x00, 0x00, 0x00,
   0x00, 0x00, 0x00, 0x00, 0x00, 0x00, 0x00, 0x00, 0x00, 0x00, 0x00, 0x00,
   0x00, 0x00, 0x00, 0x00, 0x00, 0x00, 0x00, 0x00, 0x00, 0x00, 0x00, 0x00,
   0x00, 0x00, 0x00, 0x00, 0x00, 0x00, 0x00, 0x00, 0x00, 0x00, 0x00, 0x00,
   0x00, 0x00, 0x00, 0x00, 0x00, 0x00, 0x00, 0x00, 0x00, 0x00, 0x00, 0x00,
   0x00, 0x00, 0x00, 0x00, 0x00, 0xff, 0xff, 0x0f, 0x00, 0x00, 0x00, 0x00,
   0x00, 0x00, 0x00, 0x00, 0x00, 0x00, 0x00, 0x00, 0x00, 0x00, 0x00, 0x00,
   0x80, 0x00, 0x00, 0x10, 0x00, 0x00, 0x00, 0x00, 0x00, 0x00, 0x00, 0x00,
   0x00, 0x00, 0x00, 0x00, 0x00, 0x00, 0x00, 0x00, 0x40, 0xf8, 0xff, 0x21,
   0x00, 0x00, 0x00, 0x00, 0x00, 0x00, 0x00, 0x00, 0x00, 0x00, 0x00, 0x00,
   0x00, 0x00, 0x00, 0x00, 0x30, 0x08, 0x00, 0xc1, 0x00, 0x00, 0x00, 0x00,
   0x00, 0x00, 0x00, 0x00, 0x00, 0x00, 0x00, 0xc0, 0xff, 0xff, 0xff, 0xff,
   0x0f, 0x08, 0x00, 0x01, 0xff, 0xff, 0xff, 0xff, 0x7f, 0x00, 0x00, 0x00,
   0x00, 0x00, 0x00, 0x40, 0x00, 0x00, 0x00, 0x00, 0x00, 0xf8, 0xff, 0x01,
   0x00, 0x00, 0x00, 0x00, 0x40, 0x00, 0x00, 0x00, 0x00, 0x00, 0x00, 0x40,
   0x00, 0x00, 0x00, 0x00, 0x00, 0x00, 0x00, 0x00, 0x00, 0x00, 0x00, 0x00,
   0x40, 0x00, 0x00, 0x00, 0x00, 0x00, 0x00, 0x40, 0xc0, 0xf7, 0xff, 0x9f,
   0xff, 0xff, 0xfc, 0xff, 0xe7, 0xff, 0x03, 0x00, 0x40, 0x00, 0x00, 0x00,
   0x00, 0x00, 0x00, 0x40, 0x5f, 0x14, 0x11, 0x91, 0x88, 0x88, 0x44, 0x44,
   0x24, 0x22, 0x02, 0xd6, 0x41, 0x00, 0x00, 0x00, 0x00, 0x00, 0x00, 0x40,
   0x51, 0x14, 0x11, 0x91, 0x88, 0x88, 0x44, 0x44, 0x24, 0x22, 0x72, 0xd1,
   0x5c, 0x00, 0x00, 0x00, 0x00, 0x00, 0x00, 0x40, 0x51, 0x14, 0x11, 0x91,
   0x88, 0x88, 0x44, 0x44, 0x24, 0x22, 0x02, 0x15, 0x41, 0x00, 0x00, 0x00,
   0x00, 0x00, 0x00, 0x40, 0xdf, 0xf7, 0xff, 0x9f, 0xff, 0xff, 0xfc, 0xff,
   0xe7, 0xff, 0x03, 0xd6, 0x41, 0x00, 0x00, 0x00, 0x00, 0x00, 0x00, 0x40,
   0x11, 0x00, 0x00, 0x00, 0x00, 0x00, 0x00, 0x00, 0x00, 0x00, 0x00, 0x00,
   0x40, 0x00, 0x00, 0x00, 0x00, 0x00, 0x00, 0x40, 0xd1, 0xff, 0xff, 0xff,
   0xff, 0xff, 0xff, 0xff, 0xe7, 0xff, 0xf3, 0xff, 0x5f, 0x00, 0x00, 0x00,
   0x00, 0x00, 0x00, 0x40, 0x5f, 0x44, 0x44, 0x44, 0x44, 0x44, 0x44, 0x04,
   0x24, 0x22, 0x12, 0x11, 0x51, 0x00, 0x00, 0x00, 0x00, 0x00, 0x00, 0x40,
   0x40, 0x44, 0x44, 0x44, 0x44, 0x44, 0x44, 0x04, 0x24, 0x22, 0x12, 0x11,
   0x51, 0x00, 0x00, 0x00, 0x00, 0x00, 0x00, 0x40, 0x40, 0x44, 0x44, 0x44,
   0x44, 0x44, 0x44, 0x04, 0x24, 0x22, 0x12, 0x11, 0x51, 0x00, 0x00, 0x00,
   0x00, 0x00, 0x00, 0x40, 0xdf, 0xff, 0xff, 0xff, 0xff, 0xff, 0xff, 0xff,
   0xe7, 0xff, 0xf3, 0xff, 0x5f, 0x00, 0x00, 0x00, 0x00, 0x00, 0x00, 0x40,
   0x51, 0x10, 0x11, 0x11, 0x11, 0x11, 0x11, 0x11, 0x24, 0x22, 0x12, 0x11,
   0x51, 0x00, 0x00, 0x00, 0x00, 0x00, 0x00, 0x40, 0x51, 0x10, 0x11, 0x11,
   0x11, 0x11, 0x11, 0x11, 0x24, 0x22, 0x12, 0x11, 0x51, 0x00, 0x00, 0x00,
   0x00, 0x00, 0x00, 0x40, 0x5f, 0x10, 0x11, 0x11, 0x11, 0x11, 0x11, 0x11,
   0x24, 0x22, 0x12, 0x11, 0x51, 0x00, 0x00, 0x00, 0x00, 0x00, 0x00, 0x40,
   0xd1, 0xff, 0xff, 0xff, 0xff, 0xff, 0xff, 0xff, 0xe7, 0xff, 0xf3, 0xff,
   0x51, 0x00, 0x00, 0x00, 0x00, 0x00, 0x00, 0x40, 0x51, 0x20, 0x22, 0x22,
   0x22, 0x22, 0x22, 0x02, 0x04, 0x00, 0x10, 0x11, 0x51, 0x00, 0x00, 0x00,
   0x00, 0x00, 0x00, 0x40, 0x5f, 0x20, 0x22, 0x22, 0x22, 0x22, 0x22, 0x02,
   0x04, 0x00, 0x10, 0x11, 0x51, 0x00, 0x00, 0x00, 0x00, 0x00, 0x00, 0x40,
   0x40, 0x20, 0x22, 0x22, 0x22, 0x22, 0x22, 0x02, 0x04, 0x00, 0x10, 0x11,
   0x51, 0x00, 0x00, 0x00, 0x00, 0x00, 0x00, 0x40, 0xc0, 0xff, 0xff, 0xff,
   0xff, 0xff, 0xff, 0xff, 0x07, 0x3e, 0xf0, 0xff, 0x5f, 0x00, 0x00, 0x00,
   0x00, 0x00, 0x00, 0x40, 0x5f, 0x80, 0x88, 0x88, 0x88, 0x88, 0x88, 0x00,
   0x04, 0x22, 0x10, 0x11, 0x51, 0x00, 0x00, 0x00, 0x00, 0x00, 0x00, 0x40,
   0x51, 0x80, 0x88, 0x88, 0x88, 0x88, 0x88, 0x00, 0x04, 0x22, 0x10, 0x11,
   0x51, 0x00, 0x00, 0x00, 0x00, 0x00, 0x00, 0x40, 0x51, 0x80, 0x88, 0x88,
   0x88, 0x88, 0x88, 0x00, 0x04, 0x22, 0x10, 0x11, 0x51, 0x00, 0x00, 0x00,
   0x00, 0x00, 0x00, 0x40, 0xdf, 0xff, 0xff, 0xff, 0xff, 0xff, 0xff, 0xff,
   0xe7, 0xff, 0xf3, 0xff, 0x51, 0x00, 0x00, 0x00, 0x00, 0x00, 0x00, 0x40,
   0x51, 0x10, 0x42, 0x00, 0x00, 0x20, 0x84, 0x10, 0x24, 0x22, 0x12, 0x10,
   0x51, 0x00, 0x00, 0x00, 0x00, 0x00, 0x00, 0x40, 0x51, 0x10, 0x42, 0x00,
   0x00, 0x20, 0x84, 0x10, 0x24, 0x22, 0x12, 0x10, 0x51, 0x00, 0x00, 0x00,
   0x00, 0x00, 0x00, 0x40, 0x5f, 0x10, 0x42, 0x00, 0x00, 0x20, 0x84, 0x10,
   0x24, 0x22, 0x12, 0x10, 0x51, 0x00, 0x00, 0x00, 0x00, 0x00, 0x00, 0x40,
   0xc0, 0xff, 0xff, 0xff, 0xff, 0xff, 0xff, 0xff, 0xe7, 0xff, 0xf3, 0xff,
   0x5f, 0x00, 0x00, 0x00, 0x00, 0x00, 0x00, 0x40, 0x00, 0x00, 0x00, 0x00,
   0x00, 0x00, 0x00, 0x00, 0x00, 0x00, 0x00, 0x00, 0x40, 0x00, 0x00, 0x00,
   0x00, 0x00, 0x00, 0xc0, 0xff, 0xff, 0xff, 0xff, 0xff, 0xff, 0xff, 0xff,
   0xff, 0xff, 0xff, 0xff, 0x7f, 0x00, 0x00, 0x00 };
