#define scroll_width 80
#define scroll_height 6
static unsigned char scroll_bits[] = {
   0x00, 0x00, 0x00, 0x60, 0x00, 0x30, 0x03, 0x00, 0x00, 0x00, 0x00, 0x00,
   0x02, 0x10, 0x56, 0x22, 0x02, 0xf0, 0x01, 0x00, 0x00, 0x00, 0x07, 0x20,
   0x31, 0x25, 0x02, 0xe0, 0x00, 0x00, 0x00, 0x80, 0x0f, 0x40, 0x11, 0x25,
   0x02, 0x40, 0x00, 0x00, 0x00, 0x00, 0x00, 0x30, 0x16, 0x72, 0x07, 0x00,
   0x00, 0x00, 0x00, 0x00, 0x00, 0x00, 0x00, 0x00, 0x00, 0x00, 0x00, 0x00 };
