#define welcome_width 160
#define welcome_height 43
static unsigned char welcome_bits[] = {
   0x00, 0x00, 0x01, 0x00, 0x00, 0x00, 0x20, 0x00, 0x00, 0x00, 0x00, 0x00,
   0x00, 0x00, 0x00, 0x00, 0x00, 0x00, 0x00, 0x00, 0x00, 0x80, 0x03, 0x00,
   0x00, 0x00, 0x20, 0x00, 0x7f, 0x00, 0x00, 0x00, 0x00, 0x00, 0x00, 0x00,
   0x00, 0x00, 0x00, 0x00, 0x00, 0xf0, 0x0f, 0x00, 0x00, 0x00, 0x30, 0xc0,
   0xff, 0x01, 0x00, 0x00, 0x00, 0x00, 0x00, 0x00, 0x00, 0x00, 0x00, 0x00,
   0x00, 0x0c, 0x1f, 0x00, 0x00, 0x00, 0x38, 0x70, 0xf0, 0x01, 0x00, 0x00,
   0x00, 0x00, 0x00, 0x00, 0x00, 0x00, 0x00, 0x00, 0x00, 0x06, 0x0e, 0x00,
   0x00, 0x00, 0x3e, 0x0c, 0xc0, 0x03, 0x00, 0x00, 0x00, 0x00, 0x08, 0x00,
   0x00, 0x00, 0x00, 0x00, 0x80, 0x03, 0x00, 0x00, 0x00, 0x80, 0x1f, 0x02,
   0x80, 0x03, 0x00, 0x00, 0x00, 0x00, 0x1c, 0x00, 0x00, 0x00, 0x00, 0x00,
   0x80, 0x01, 0x00, 0x60, 0xe0, 0x07, 0x8f, 0x01, 0x80, 0x03, 0x00, 0x00,
   0x00, 0x00, 0x0c, 0x00, 0x00, 0x00, 0x00, 0x00, 0xc0, 0x01, 0x00, 0x78,
   0xe0, 0x07, 0x48, 0x00, 0x80, 0x03, 0x00, 0x00, 0x00, 0x00, 0x0e, 0x00,
   0x00, 0x00, 0x00, 0x00, 0xc0, 0x00, 0x00, 0x2c, 0x10, 0x00, 0x24, 0x00,
   0x80, 0x01, 0x00, 0x00, 0x00, 0x00, 0x0e, 0x00, 0x00, 0x00, 0x00, 0x00,
   0xe0, 0x00, 0x60, 0x30, 0x08, 0x00, 0x14, 0x00, 0xc0, 0x01, 0x00, 0x00,
   0x00, 0x00, 0x07, 0x00, 0x00, 0x00, 0x00, 0x00, 0xe0, 0x00, 0x70, 0x30,
   0x38, 0x00, 0x0c, 0x00, 0xc0, 0x00, 0x00, 0x00, 0x00, 0x80, 0x03, 0x00,
   0x00, 0x00, 0x00, 0x00, 0xe0, 0x00, 0x78, 0x18, 0xf8, 0x01, 0x06, 0x00,
   0xe0, 0x30, 0x00, 0x02, 0x00, 0x80, 0x01, 0x07, 0x00, 0x00, 0x00, 0x00,
   0xe0, 0x01, 0x7c, 0x18, 0xe0, 0x03, 0x02, 0x00, 0x70, 0x18, 0x0c, 0x03,
   0x83, 0xc7, 0xc0, 0x06, 0x00, 0x00, 0x00, 0x00, 0xc0, 0x83, 0x3b, 0x0c,
   0xc0, 0x03, 0x39, 0x00, 0x1c, 0x0c, 0x86, 0x87, 0xe3, 0x47, 0x20, 0x02,
   0x00, 0x00, 0x00, 0x00, 0xc0, 0x7f, 0x1c, 0x0c, 0x81, 0x83, 0x39, 0x00,
   0x0e, 0x04, 0x42, 0xc6, 0x13, 0x27, 0xe0, 0x01, 0x00, 0x00, 0xfc, 0x1f,
   0x00, 0x1f, 0x1e, 0x8e, 0x80, 0xc1, 0x61, 0xc0, 0x03, 0x06, 0x23, 0x22,
   0x0b, 0x73, 0x10, 0x10, 0x00, 0x00, 0xfe, 0x0f, 0x00, 0x00, 0x0e, 0x8e,
   0xc0, 0xe0, 0x80, 0x7f, 0x00, 0x8e, 0x13, 0x13, 0x87, 0xe9, 0x39, 0x0c,
   0x00, 0x1f, 0x00, 0x06, 0x02, 0x00, 0x07, 0x87, 0x61, 0xf0, 0x00, 0x00,
   0x00, 0x7e, 0x8f, 0x0f, 0xfd, 0xe6, 0xf7, 0x03, 0x80, 0x3f, 0x00, 0x07,
   0x02, 0x80, 0x03, 0x07, 0x1f, 0x70, 0x00, 0x00, 0x00, 0x1c, 0x03, 0x03,
   0x3a, 0xc0, 0xe1, 0x01, 0xc0, 0x71, 0x00, 0x03, 0x03, 0xc0, 0x01, 0x00,
   0x00, 0x78, 0x00, 0x00, 0x00, 0x00, 0x00, 0x00, 0x03, 0x00, 0x00, 0xe0,
   0xe1, 0x60, 0x80, 0x01, 0x03, 0xe0, 0x00, 0x00, 0x00, 0x3c, 0x00, 0x00,
   0x00, 0x00, 0x00, 0x00, 0x03, 0x00, 0x00, 0xf0, 0x63, 0xc0, 0x80, 0x01,
   0x07, 0x70, 0x00, 0x00, 0x00, 0x3c, 0x00, 0x00, 0x00, 0x00, 0x00, 0x80,
   0x01, 0x00, 0x66, 0x18, 0x63, 0xc0, 0x80, 0x01, 0x1e, 0x1c, 0x00, 0x00,
   0x00, 0x18, 0x00, 0x00, 0x00, 0x00, 0x00, 0xc0, 0x01, 0x00, 0x66, 0x0c,
   0x63, 0xc0, 0xc0, 0x00, 0xf8, 0x03, 0x00, 0x00, 0x00, 0x00, 0x00, 0x00,
   0x00, 0x00, 0x00, 0xc0, 0x01, 0x20, 0x06, 0x08, 0x63, 0xc0, 0xc0, 0x00,
   0x00, 0x00, 0x00, 0x00, 0x00, 0x00, 0x00, 0x00, 0x00, 0x00, 0x00, 0xe0,
   0x00, 0x30, 0x0e, 0x00, 0x63, 0xc0, 0xc0, 0x00, 0x00, 0x00, 0x00, 0x00,
   0x00, 0x00, 0x00, 0x00, 0x00, 0x00, 0x00, 0xe0, 0x0c, 0x00, 0xcc, 0x80,
   0xc1, 0xc0, 0x60, 0x00, 0x00, 0x00, 0x00, 0x00, 0x00, 0x00, 0x00, 0x00,
   0x00, 0x00, 0x00, 0x60, 0x0c, 0x00, 0xcc, 0xc0, 0xc0, 0xc0, 0x60, 0x00,
   0x00, 0x00, 0x00, 0x00, 0x00, 0x00, 0x00, 0x00, 0x00, 0x00, 0x00, 0x00,
   0x0c, 0x40, 0xcc, 0x61, 0xc0, 0x61, 0x60, 0x00, 0x00, 0x00, 0x00, 0x00,
   0x00, 0x00, 0x00, 0x00, 0x00, 0x00, 0x03, 0x00, 0x0c, 0x60, 0x98, 0x61,
   0x80, 0x7f, 0x00, 0x00, 0x00, 0x00, 0x00, 0x00, 0x00, 0x00, 0x00, 0x00,
   0x00, 0x00, 0x03, 0x00, 0xcc, 0xc3, 0x98, 0x61, 0x00, 0x1f, 0x00, 0x00,
   0x00, 0x00, 0x00, 0x00, 0x00, 0x00, 0x00, 0x00, 0x00, 0x00, 0x03, 0x00,
   0xf8, 0xc7, 0x98, 0x61, 0x1e, 0x00, 0x00, 0x00, 0x00, 0x00, 0x00, 0x00,
   0x00, 0x00, 0x00, 0x00, 0x00, 0x00, 0x03, 0xe0, 0x79, 0xce, 0x18, 0xe3,
   0x0f, 0x00, 0x00, 0x00, 0x00, 0x00, 0x00, 0x00, 0x00, 0x00, 0x00, 0x00,
   0x00, 0x00, 0x03, 0xf0, 0x39, 0xcc, 0x31, 0xe3, 0x01, 0x00, 0x00, 0x00,
   0x00, 0x00, 0x00, 0x00, 0x00, 0x00, 0x00, 0x00, 0x00, 0x00, 0x63, 0xb8,
   0x19, 0x98, 0x31, 0x03, 0x00, 0x00, 0x00, 0x00, 0x00, 0x00, 0x00, 0x00,
   0x00, 0x00, 0x00, 0x42, 0x00, 0x00, 0x33, 0x1c, 0x33, 0x98, 0x31, 0x00,
   0x00, 0x00, 0x00, 0x00, 0x00, 0x00, 0x00, 0x00, 0x00, 0x20, 0x00, 0x42,
   0x00, 0x00, 0x13, 0x0c, 0x33, 0x9c, 0x21, 0x00, 0x00, 0x00, 0x00, 0x00,
   0x00, 0x00, 0x00, 0x4e, 0x99, 0x73, 0xc6, 0xc3, 0x13, 0x01, 0x1b, 0x0c,
   0x33, 0x0c, 0x01, 0x00, 0x00, 0x00, 0x00, 0x00, 0x00, 0x00, 0x00, 0xc1,
   0x24, 0x24, 0x29, 0x42, 0xa4, 0x00, 0x1f, 0x0c, 0xf3, 0x0f, 0x00, 0x00,
   0x00, 0x00, 0x00, 0x00, 0x00, 0x00, 0x00, 0x41, 0x3c, 0x27, 0x2f, 0x42,
   0xa4, 0x00, 0x37, 0x0c, 0xe7, 0x03, 0x00, 0x00, 0x00, 0x00, 0x00, 0x00,
   0x00, 0x00, 0x00, 0x41, 0x84, 0x24, 0x21, 0x42, 0xa4, 0x80, 0x63, 0xfc,
   0x2f, 0x00, 0x00, 0x00, 0x00, 0x00, 0x00, 0x00, 0x00, 0x00, 0x00, 0x4e,
   0xb8, 0x47, 0xce, 0xc3, 0x43, 0x80, 0xe3, 0xf8, 0x00, 0x00, 0x00, 0x00,
   0x00, 0x00, 0x00, 0x00, 0x00, 0x00, 0x00, 0x00, 0x00, 0x00, 0x00, 0x00,
   0x40, 0x80, 0xc3, 0x00, 0x00, 0x00, 0x00, 0x00, 0x00, 0x00, 0x00, 0x00,
   0x00, 0x00, 0x00, 0x00, 0x00, 0x00, 0x00, 0x00, 0x20, 0x00, 0x80, 0x00,
   0x00, 0x00, 0x00, 0x00, 0x00, 0x00, 0x00, 0x00 };
