#define aim_width 10
#define aim_height 7
static unsigned char aim_bits[] = {
   0x30, 0x00, 0x30, 0x00, 0x00, 0x00, 0x70, 0x00, 0x30, 0x00, 0x78, 0x00,
   0x4c, 0x00 };
