#define bonjour_width 10
#define bonjour_height 7
static unsigned char bonjour_bits[] = {
   0x0c, 0x00, 0x0c, 0x00, 0x80, 0x01, 0x80, 0x01, 0x00, 0x00, 0x18, 0x00,
   0x18, 0x00 };
