#define facebook_width 10
#define facebook_height 7
static unsigned char facebook_bits[] = {
   0xfe, 0x00, 0x9e, 0x00, 0xde, 0x00, 0x8e, 0x00, 0xde, 0x00, 0xde, 0x00,
   0xfe, 0x00 };
