#define gadu_width 10
#define gadu_height 7
static unsigned char gadu_bits[] = {
   0x38, 0x00, 0x44, 0x00, 0xaa, 0x00, 0x82, 0x00, 0xba, 0x00, 0x44, 0x00,
   0x38, 0x00 };
