#define hangouts_width 10
#define hangouts_height 7
static unsigned char hangouts_bits[] = {
   0x30, 0x00, 0x78, 0x00, 0xfc, 0x00, 0xfc, 0x00, 0xf8, 0x00, 0x70, 0x00,
   0x60, 0x00 };
