#define icq_width 10
#define icq_height 7
static unsigned char icq_bits[] = {
   0x00, 0x00, 0x02, 0x00, 0x00, 0x00, 0xda, 0x01, 0x4a, 0x01, 0xda, 0x01,
   0x00, 0x01 };
