#define irc_width 10
#define irc_height 7
static unsigned char irc_bits[] = {
   0xf0, 0x00, 0x08, 0x01, 0x1e, 0x01, 0x21, 0x01, 0xe1, 0x00, 0x21, 0x00,
   0x1e, 0x00 };
