#define jabber_width 10
#define jabber_height 7
static unsigned char jabber_bits[] = {
   0xc7, 0x01, 0xc7, 0x01, 0xee, 0x00, 0x6c, 0x00, 0x38, 0x00, 0x38, 0x00,
   0xee, 0x00 };
