#define meanwhile_width 10
#define meanwhile_height 7
static unsigned char meanwhile_bits[] = {
   0x30, 0x00, 0xb4, 0x00, 0x84, 0x00, 0x78, 0x00, 0x30, 0x00, 0x48, 0x00,
   0x48, 0x00 };
