#define msn_width 10
#define msn_height 7
static unsigned char msn_bits[] = {
   0xc6, 0x00, 0xee, 0x00, 0x7c, 0x00, 0x38, 0x00, 0x7c, 0x00, 0x6c, 0x00,
   0x28, 0x00 };
