#define mxit_width 10
#define mxit_height 7
static unsigned char mxit_bits[] = {
   0xfe, 0x00, 0xfe, 0x01, 0x80, 0x01, 0xb6, 0x01, 0xb6, 0x01, 0xb6, 0x01,
   0xb4, 0x01 };
