#define myspace_width 10
#define myspace_height 7
static unsigned char myspace_bits[] = {
   0xb6, 0x01, 0xb6, 0x01, 0x00, 0x00, 0xb6, 0x01, 0xb6, 0x01, 0xb0, 0x01,
   0x80, 0x01 };
