#define napster_width 10
#define napster_height 7
static unsigned char napster_bits[] = {
   0x84, 0x00, 0xfc, 0x00, 0x86, 0x01, 0x86, 0x01, 0x84, 0x00, 0x48, 0x00,
   0x30, 0x00 };
