#define novell_width 10
#define novell_height 7
static unsigned char novell_bits[] = {
   0xfe, 0x00, 0xba, 0x00, 0xb2, 0x00, 0xaa, 0x00, 0x9a, 0x00, 0xba, 0x00,
   0xfe, 0x00 };
