#define qq_width 10
#define qq_height 7
static unsigned char qq_bits[] = {
   0x00, 0x00, 0x00, 0x00, 0xee, 0x00, 0xaa, 0x00, 0xee, 0x00, 0x88, 0x00,
   0x00, 0x00 };
