#define silc_width 10
#define silc_height 7
static unsigned char silc_bits[] = {
   0x00, 0x00, 0xf0, 0x00, 0x10, 0x00, 0x10, 0x00, 0x10, 0x00, 0x1e, 0x00,
   0x00, 0x00 };
