#define simple_width 10
#define simple_height 7
static unsigned char simple_bits[] = {
   0x00, 0x00, 0xd7, 0x01, 0x51, 0x01, 0xd7, 0x01, 0x54, 0x00, 0x57, 0x00,
   0x00, 0x00 };
