#define sipe_width 10
#define sipe_height 7
static unsigned char sipe_bits[] = {
   0xfe, 0x01, 0x09, 0x02, 0xfd, 0x02, 0x01, 0x02, 0xfd, 0x02, 0x41, 0x02,
   0xfe, 0x01 };
