#define skype_width 10
#define skype_height 7
static unsigned char skype_bits[] = {
   0x3e, 0x00, 0x4e, 0x00, 0xf6, 0x00, 0xee, 0x00, 0xde, 0x00, 0xe4, 0x00,
   0xf8, 0x00 };
