#define steam_width 10
#define steam_height 7
static unsigned char steam_bits[] = {
   0x00, 0x00, 0x80, 0x01, 0x83, 0x01, 0xcc, 0x01, 0xf0, 0x00, 0x40, 0x00,
   0x00, 0x00 };
