#define unknown_width 10
#define unknown_height 7
static unsigned char unknown_bits[] = {
   0x38, 0x00, 0x44, 0x00, 0x44, 0x00, 0x20, 0x00, 0x10, 0x00, 0x00, 0x00,
   0x10, 0x00 };
