#define yahoo_width 10
#define yahoo_height 7
static unsigned char yahoo_bits[] = {
   0x07, 0x02, 0x72, 0x02, 0x24, 0x02, 0x18, 0x01, 0x08, 0x01, 0x08, 0x00,
   0x1c, 0x01 };
