#define zephyr_width 10
#define zephyr_height 7
static unsigned char zephyr_bits[] = {
   0xfe, 0x00, 0xfe, 0x00, 0x80, 0x00, 0x38, 0x00, 0x02, 0x00, 0xfe, 0x00,
   0xfe, 0x00 };
